<mxfile host="app.diagrams.net" modified="2023-09-27T22:18:55.222Z" agent="Mozilla/5.0 (Macintosh; Intel Mac OS X 10_15_7) AppleWebKit/605.1.15 (KHTML, like Gecko) Version/17.0 Safari/605.1.15" version="21.8.2" etag="n15DcpOckYEM2wSYYPuy" type="github">
  <diagram name="PÃ¡gina-1" id="nZt7ozuQiOeEMMBHgbbl">
    <mxGraphModel>
      <root>
        <mxCell id="0" />
        <mxCell id="1" parent="0" />
      </root>
    </mxGraphModel>
  </diagram>
</mxfile>
